<?xml version="1.0" encoding="utf-8"?>
<svg version="1.1" id="Layer_1" xmlns="http://www.w3.org/2000/svg" xmlns:xlink="http://www.w3.org/1999/xlink" x="0px" y="0px"
	 viewBox="0 0 171.9 91.1" style="enable-background:new 0 0 171.9 91.1;" xml:space="preserve">
<style type="text/css">
	.st0{enable-background:new    ;}
	.fill_color{fill:#0F151E;}
</style>
<title>Tørst logo</title>
<g>
	<g class="st0">
		<path class="fill_color
	" d="M34.8,33.6h-9.2v-7.1h26.2v7.1h-9.1v32.1h-7.9V33.6z"/>
	</g>
	<g class="st0">
		<path class="fill_color
	" d="M64.6,35.7c2.9,0,5.5,0.7,7.8,1.9l2.1-2.7l3.7,2.9l-2.1,2.6c2.6,2.7,4.3,6.5,4.3,10.8
			c0,8.8-6.6,15.3-15.8,15.3c-2.9,0-5.4-0.6-7.7-1.7l-2.2,2.8l-3.6-2.9l2.1-2.6c-2.7-2.7-4.3-6.5-4.3-10.9
			C48.9,42.2,55.7,35.7,64.6,35.7z M57.9,56L68,43.3c-1-0.4-2.1-0.7-3.4-0.7c-4.6,0-8,3.6-8,8.6C56.6,53.1,57.1,54.7,57.9,56z
			 M71.5,46.4L61.5,59c1,0.4,2,0.6,3.1,0.6c4.6,0,8.1-3.5,8.1-8.5C72.7,49.4,72.3,47.7,71.5,46.4z"/>
		<path class="fill_color
	" d="M100.5,43.5c-5.8,0-7.9,3.6-7.9,9.4v12.8h-7.7V36.4h7.6v4.3c1.3-2.9,4.2-5,8.1-5V43.5z"/>
		<path class="fill_color
	" d="M103.1,61l4.5-4c1.5,1.7,3.4,3.2,6.7,3.2c2.2,0,3.6-1,3.6-2.6c0-4.5-13.8-2.7-13.8-13.2
			c0-5.4,4.6-8.7,10.6-8.7c5.5,0,8.6,2.9,10,5.2l-5.1,3.8c-0.9-1.1-2.5-2.8-5.3-2.8c-1.8,0-3,0.9-3,2.4c0,4.6,13.9,2.4,13.9,12.9
			c0,5.7-4.9,9.3-11.3,9.3C108.2,66.4,104.6,63.5,103.1,61z"/>
		<path class="fill_color
	" d="M130.1,30.3h7.6v6.2h5.5v6.3h-5.5V54c0,4.4,1.3,5.3,4.3,5.3c0.5,0,0.8,0,1.4-0.1v6.6c0,0-1.2,0.3-3.3,0.3
			c-7,0-10.1-3.9-10.1-11.9V42.7H127v-6.3h3.1V30.3z"/>
	</g>
</g>
<path class="fill_color" d="M164.8,7.1V84H7.1V7.1H164.8 M171.9,0H0v91.1h171.9V0z"/>
</svg>
