<?xml version="1.0" standalone="no"?>
<!DOCTYPE svg PUBLIC "-//W3C//DTD SVG 20010904//EN"
 "http://www.w3.org/TR/2001/REC-SVG-20010904/DTD/svg10.dtd">
<svg version="1.0" xmlns="http://www.w3.org/2000/svg"
 width="728.000000pt" height="728.000000pt" viewBox="0 0 728.000000 728.000000"
 preserveAspectRatio="xMidYMid meet">
<metadata>
Created by potrace 1.11, written by Peter Selinger 2001-2013
</metadata>
<g transform="translate(0.000000,728.000000) scale(0.100000,-0.100000)"
fill="#000000" stroke="none">
<path d="M540 3640 l0 -3640 3105 0 3105 0 0 3640 0 3640 -3105 0 -3105 0 0
-3640z m643 3075 c20 8 118 11 122 5 2 -4 27 -4 55 0 27 4 50 3 50 -1 0 -5 6
-6 13 -4 20 8 118 11 122 5 2 -4 27 -4 55 0 27 4 50 2 50 -2 0 -5 4 -6 10 -3
14 8 155 9 168 1 7 -4 17 -4 23 -1 14 10 759 12 759 3 0 -4 6 -5 13 -3 20 8
118 11 122 5 2 -4 27 -4 55 0 27 4 50 3 50 -1 0 -5 6 -6 13 -4 20 8 118 11
122 5 2 -4 27 -4 55 0 27 4 50 3 50 -1 0 -5 6 -6 13 -4 20 8 118 11 122 5 2
-4 27 -4 55 0 27 4 50 3 50 -1 0 -5 6 -6 13 -4 20 8 118 11 122 5 2 -4 27 -4
55 0 27 4 50 2 50 -2 0 -5 4 -6 10 -3 14 8 155 9 168 1 7 -4 17 -4 23 -1 14
10 759 12 759 3 0 -4 6 -5 13 -3 20 8 118 11 122 5 2 -4 27 -4 55 0 27 4 50 3
50 -1 0 -5 6 -6 13 -4 20 8 118 11 122 5 2 -4 27 -4 55 0 27 4 50 3 50 -1 0
-5 6 -6 13 -4 20 8 118 11 122 5 2 -4 27 -4 55 0 27 4 50 3 50 -1 0 -5 6 -6
13 -4 20 8 118 11 122 5 2 -4 27 -4 55 0 27 4 50 2 50 -2 0 -5 4 -6 10 -3 14
8 155 9 168 1 7 -4 17 -4 23 0 9 5 434 7 487 2 9 -1 12 -623 12 -3075 0 -2920
-1 -3073 -17 -3074 -84 -4 -5064 -1 -5068 3 -4 4 -6 4092 -3 6098 0 8 -2 22
-4 30 -2 10 8 16 32 20 19 3 36 2 38 -2 2 -4 9 -5 15 -3z"/>
<path d="M2613 5162 c-13 -2 -24 -6 -24 -10 -3 -17 -5 -538 -2 -547 2 -7 122
-10 361 -10 197 1 362 -3 369 -8 8 -6 9 -16 3 -33 -5 -13 -6 -24 -2 -24 8 0 7
-173 -2 -195 -3 -8 -2 -16 2 -19 9 -5 6 -81 -3 -96 -3 -6 -3 -10 2 -10 9 0 9
-1451 0 -1475 -4 -8 -3 -16 1 -19 9 -5 6 -81 -3 -96 -3 -6 -3 -10 2 -10 9 0 8
-172 -1 -195 -3 -8 -2 -16 2 -19 9 -5 6 -81 -3 -96 -3 -6 -3 -10 2 -10 4 0 7
-58 6 -130 l-1 -130 314 0 c244 0 314 3 315 13 0 6 1 579 1 1272 1 693 3 1265
5 1270 2 6 131 10 359 10 196 0 358 3 361 8 2 4 4 29 4 55 -3 122 -3 164 2
169 3 3 2 16 -3 29 -5 13 -6 24 -2 24 4 0 7 23 7 50 0 28 -4 50 -9 50 -6 0 -6
4 0 10 6 6 8 33 4 65 -3 30 -3 55 0 55 9 0 6 38 -3 46 -7 7 -2019 12 -2064 6z"/>
</g>
</svg>
